<?xml version="1.0" standalone="no"?>
<!DOCTYPE svg PUBLIC "-//W3C//DTD SVG 20010904//EN"
 "http://www.w3.org/TR/2001/REC-SVG-20010904/DTD/svg10.dtd">
<svg version="1.0" xmlns="http://www.w3.org/2000/svg"
 width="188.000000pt" height="269.000000pt" viewBox="0 0 188.000000 269.000000"
 preserveAspectRatio="xMidYMid meet">

<g transform="translate(0.000000,269.000000) scale(0.100000,-0.100000)"
fill="#000000" stroke="none">
<path d="M910 2629 c0 -5 5 -7 10 -4 6 3 10 8 10 11 0 2 -4 4 -10 4 -5 0 -10
-5 -10 -11z"/>
<path d="M878 2603 c6 -2 18 -2 25 0 6 3 1 5 -13 5 -14 0 -19 -2 -12 -5z"/>
<path d="M943 2593 c-10 -10 -14 -15 -9 -10 17 13 38 8 32 -8 -4 -10 1 -15 15
-15 11 0 18 4 15 9 -4 5 -1 11 6 13 17 6 0 28 -21 28 -11 0 -27 -8 -38 -17z"/>
<path d="M898 2453 c6 -2 18 -2 25 0 6 3 1 5 -13 5 -14 0 -19 -2 -12 -5z"/>
<path d="M990 2445 c0 -8 2 -15 4 -15 2 0 11 -3 20 -6 23 -9 20 9 -4 24 -17
10 -20 10 -20 -3z"/>
<path d="M825 2370 l-20 -9 20 -1 c18 -1 18 -2 3 -11 -10 -5 -15 -16 -12 -24
4 -8 1 -15 -5 -15 -6 0 -11 -16 -11 -35 0 -19 5 -35 11 -35 8 0 7 -6 -2 -16
-12 -14 -11 -16 6 -13 17 4 20 13 22 62 3 67 16 97 43 97 15 0 18 -6 15 -30
-5 -42 12 -48 23 -8 l9 33 12 -43 c11 -38 10 -46 -5 -63 -21 -23 -12 -58 11
-39 9 8 15 8 15 2 0 -13 -23 -21 -67 -24 -27 -2 -30 -5 -20 -17 7 -8 13 -26
13 -40 3 -65 5 -71 20 -71 9 0 18 9 21 20 3 11 10 20 15 20 5 0 6 5 3 10 -3 6
-2 10 3 10 5 0 13 -10 17 -22 4 -14 8 -18 12 -10 2 6 10 12 18 12 8 0 13 15
13 43 1 24 5 55 11 68 5 14 12 50 16 81 6 50 5 57 -13 67 -24 13 -168 14 -197
1z"/>
<path d="M810 2190 c0 -5 5 -10 10 -10 6 0 10 5 10 10 0 6 -4 10 -10 10 -5 0
-10 -4 -10 -10z"/>
<path d="M670 2080 c0 -5 5 -10 10 -10 6 0 10 5 10 10 0 6 -4 10 -10 10 -5 0
-10 -4 -10 -10z"/>
<path d="M1040 2032 c0 -10 41 -24 49 -17 6 7 0 11 -26 19 -13 4 -23 3 -23 -2z"/>
<path d="M730 1994 c0 -13 18 -39 24 -34 2 3 -2 14 -10 24 -8 11 -14 16 -14
10z"/>
<path d="M859 1983 c-13 -15 -12 -15 6 -6 11 6 27 13 35 16 10 4 8 6 -6 6 -12
1 -28 -6 -35 -16z"/>
<path d="M982 1980 c-12 -10 -18 -21 -13 -24 5 -3 11 1 15 9 3 9 12 12 22 8
15 -6 15 -7 -2 -20 -17 -13 -15 -14 21 -11 22 2 39 6 38 11 -2 4 -5 6 -7 5 -3
-2 -15 7 -28 19 -23 21 -23 21 -46 3z"/>
<path d="M1116 1962 c-3 -5 -6 -30 -7 -58 -2 -54 -22 -86 -47 -77 -9 4 -13 2
-9 -4 4 -7 -5 -15 -20 -20 l-28 -10 25 -13 c14 -7 29 -19 33 -26 4 -8 13 -14
20 -14 8 0 6 4 -3 11 -13 9 -13 10 0 6 8 -2 15 -9 15 -15 0 -6 9 -18 20 -27
17 -13 15 -13 -15 1 -52 25 -149 93 -197 137 -48 44 -53 41 -22 -10 22 -35
123 -123 142 -123 7 -1 26 -12 42 -26 29 -25 29 -25 5 -18 -14 3 -34 10 -45
14 -24 9 -116 79 -167 128 -21 20 -40 33 -43 30 -5 -5 57 -66 130 -126 58 -48
7 -20 -70 38 -71 54 -88 49 -27 -8 51 -49 145 -91 220 -98 34 -4 59 -10 57
-14 -3 -4 14 -5 38 -3 l42 5 -25 -28 c-14 -16 -18 -23 -10 -16 23 20 50 15 51
-10 1 -13 5 -5 9 17 4 22 6 43 4 47 -6 9 34 21 46 13 5 -3 10 3 10 14 0 25 3
25 -48 7 -34 -12 -43 -12 -52 -1 -7 9 -7 15 -1 19 6 4 2 20 -11 42 -11 19 -22
49 -24 67 -1 18 -3 32 -4 32 -4 0 -23 88 -24 108 0 19 -2 21 -10 9z m-101
-282 c3 -6 -1 -7 -9 -4 -18 7 -21 14 -7 14 6 0 13 -4 16 -10z"/>
<path d="M730 1910 c-1 -19 -3 -50 -5 -69 -2 -22 0 -29 6 -20 5 9 8 -19 6 -72
l-2 -86 -30 7 c-17 4 -40 12 -52 18 -19 11 -21 9 -19 -11 2 -12 8 -32 15 -45
12 -22 31 -30 31 -12 0 6 4 10 10 10 5 0 7 -7 4 -15 -4 -10 -20 -15 -51 -15
l-46 0 7 38 c34 190 37 227 19 240 -20 14 -47 16 -38 3 3 -5 -1 -49 -10 -97
-25 -143 -17 -264 19 -277 10 -4 10 -20 0 -79 -20 -112 -18 -133 11 -146 31
-14 30 -17 45 108 19 163 29 198 59 205 14 4 29 12 33 18 4 7 8 -25 8 -71 0
-75 3 -88 29 -125 15 -23 36 -57 45 -74 9 -18 22 -33 28 -33 7 0 5 7 -4 18
-23 26 -48 110 -48 159 0 43 15 59 23 26 2 -10 4 2 3 27 -1 25 -5 50 -9 56
-10 17 -39 146 -33 151 2 3 12 -10 22 -29 25 -50 86 -141 104 -155 8 -7 38
-20 65 -29 45 -14 57 -15 100 -3 72 21 68 36 -10 31 -79 -5 -113 7 -159 58
-19 21 -38 35 -42 32 -4 -4 -4 -1 0 6 6 10 -21 62 -44 82 -14 13 -55 99 -71
149 -17 53 -18 54 -19 21z"/>
<path d="M885 1930 c4 -6 11 -8 16 -5 14 9 11 15 -7 15 -8 0 -12 -5 -9 -10z"/>
<path d="M950 1897 c0 -9 5 -17 11 -17 8 0 7 -6 -2 -17 -13 -17 -13 -17 5 -3
18 14 19 13 12 -12 -4 -17 -2 -28 4 -28 5 0 10 6 10 14 0 8 3 22 7 32 4 11 3
15 -5 10 -6 -3 -18 4 -26 16 -13 18 -16 19 -16 5z"/>
<path d="M836 1556 c3 -8 12 -17 20 -20 12 -4 12 -2 4 14 -12 23 -32 27 -24 6z"/>
<path d="M1237 1516 c-8 -19 3 -85 15 -92 5 -3 6 16 2 48 -8 60 -9 65 -17 44z"/>
<path d="M1191 1484 c0 -11 3 -14 6 -6 3 7 2 16 -1 19 -3 4 -6 -2 -5 -13z"/>
<path d="M1172 1395 c-7 -26 -22 -62 -34 -79 -30 -42 -108 -116 -124 -116 -16
0 -7 33 15 57 18 19 51 80 51 95 0 23 -24 -12 -76 -112 -31 -60 -70 -123 -87
-140 -33 -34 -108 -74 -157 -85 l-30 -7 -1 89 c-2 119 0 135 18 156 22 24 43
21 84 -9 48 -36 81 -27 152 44 73 71 98 114 30 50 -49 -45 -119 -88 -146 -88
-19 0 -83 70 -100 110 l-15 35 -1 -32 c-1 -35 -17 -44 -28 -15 -4 9 -20 31
-35 47 l-29 30 2 -97 c3 -91 1 -98 -21 -116 -18 -15 -22 -24 -16 -46 4 -16 16
-30 26 -33 12 -3 20 -14 20 -27 0 -12 10 -36 23 -53 l22 -30 -7 -299 c-5 -179
-12 -309 -19 -324 -8 -19 -7 -26 5 -36 15 -10 14 -13 -9 -28 -21 -14 -24 -14
-19 -1 11 27 -11 16 -29 -15 -10 -16 -15 -30 -11 -30 3 0 2 -6 -4 -13 -6 -7
-15 -24 -21 -39 -9 -25 -2 -30 29 -18 3 1 8 2 11 2 4 -1 5 8 2 18 -4 16 -2 19
11 14 9 -3 16 -15 16 -26 0 -16 5 -19 25 -16 17 4 25 1 25 -9 0 -12 10 -14 44
-12 24 2 42 1 40 -3 -2 -3 2 -9 8 -11 7 -3 -45 -5 -117 -4 l-130 2 -3 -87 -4
-88 372 0 373 0 -8 72 c-3 40 -9 76 -11 80 -3 5 -69 9 -147 10 -78 1 -118 3
-89 5 28 2 52 8 52 14 0 5 7 9 15 9 8 0 25 5 39 11 28 13 25 39 -5 39 -13 0
-20 10 -25 35 -8 44 -2 52 22 28 12 -13 19 -14 22 -5 5 17 22 15 22 -3 0 -8 9
-15 20 -15 12 0 20 -7 20 -16 0 -9 -9 -18 -20 -21 -11 -3 -20 -13 -19 -22 0
-10 2 -11 6 -3 2 6 14 12 26 12 48 0 67 12 66 39 0 14 -3 20 -6 14 -2 -7 -9
-13 -15 -13 -6 0 -7 7 -4 16 3 8 2 12 -4 9 -6 -3 -10 -3 -11 2 0 4 -2 46 -5
93 -3 46 -9 103 -13 127 -6 28 -5 40 2 36 7 -4 8 21 4 78 -4 46 -8 143 -8 214
l-2 130 -8 -80 c-5 -44 -11 -111 -13 -150 -7 -115 -18 -205 -26 -205 -22 0
-21 89 0 330 6 58 9 141 9 185 l-1 80 -13 -90 c-7 -49 -18 -128 -24 -175 -15
-109 -33 -181 -25 -100 7 78 42 324 55 395 6 33 15 80 20 105 5 29 7 -24 5
-145 -3 -133 -1 -170 4 -125 12 92 31 393 25 398 -3 3 -15 -7 -28 -21 -30 -35
-38 -34 -26 3 6 16 9 37 7 46 -2 10 -9 -4 -16 -31z m-442 -122 c-8 -18 -14
-23 -18 -14 -2 7 1 17 7 20 7 5 9 16 5 27 -6 15 -4 17 6 7 11 -10 11 -17 0
-40z m440 -47 c0 -13 -20 -77 -31 -98 -5 -10 -9 -23 -9 -30 0 -6 -14 -42 -31
-78 -26 -56 -35 -67 -55 -67 -27 0 -30 13 -12 53 10 22 10 28 0 32 -6 2 -12
16 -12 30 0 21 2 24 10 12 7 -11 10 -4 10 28 0 31 4 42 15 42 8 0 15 4 15 10
0 19 61 79 80 77 11 -1 20 -6 20 -11z m-178 -251 c-8 -75 -10 -81 -11 -35 -1
61 12 176 16 145 2 -11 -1 -60 -5 -110z m-26 37 c-3 -41 -7 -150 -8 -241 -1
-156 -2 -160 -8 -71 -4 52 -9 149 -10 215 -2 82 -5 109 -10 85 l-7 -35 -2 38
c0 20 4 37 9 37 6 0 10 11 10 23 0 15 6 24 16 24 15 0 16 -10 10 -75z m-56
-175 c0 -239 -10 -487 -19 -487 -7 0 -16 242 -16 397 1 50 -3 89 -7 87 -4 -3
-8 -14 -8 -25 0 -11 -4 -18 -9 -14 -5 3 -16 -2 -24 -10 -27 -27 -63 -13 -65
25 0 8 -3 22 -5 30 -12 45 -18 113 -13 133 6 25 54 46 113 50 19 1 33 7 33 15
0 6 5 12 10 12 6 0 10 -78 10 -213z m155 53 c0 -25 -5 -40 -13 -40 -8 0 -10 9
-6 28 14 65 20 69 19 12z m-22 -201 c-6 -6 -7 3 -4 23 4 28 6 29 9 9 2 -13 0
-27 -5 -32z m-91 -221 c-2 -65 -7 -118 -10 -118 -4 0 -8 52 -9 115 -1 71 2
113 8 110 5 -4 9 -1 9 6 0 7 1 10 3 8 1 -2 1 -57 -1 -121z m155 100 c-3 -8 -6
-5 -6 6 -1 11 2 17 5 13 3 -3 4 -12 1 -19z m82 -70 c0 -18 -4 -55 -8 -83 l-7
-50 -7 66 c-4 37 -5 74 -1 83 10 27 24 18 23 -16z m-179 -138 c0 -5 6 -10 13
-10 6 0 24 -15 39 -34 l28 -35 -33 10 c-17 5 -48 9 -67 10 -19 0 -29 3 -22 6
6 2 10 9 6 14 -8 13 10 11 42 -6 15 -8 30 -12 33 -10 8 8 -32 33 -62 39 -16 3
-26 10 -22 16 8 13 45 13 45 0z m-266 -26 c3 -8 9 -13 13 -11 5 3 16 -5 25
-18 17 -22 17 -24 -1 -46 l-18 -22 -21 21 c-14 14 -22 34 -22 57 0 36 13 47
24 19z m156 -15 c0 -5 -4 -9 -10 -9 -5 0 -10 7 -10 16 0 8 5 12 10 9 6 -3 10
-10 10 -16z m44 -54 c2 -45 -1 -65 -10 -65 -18 0 -26 30 -13 46 7 8 9 29 6 48
-5 32 0 52 11 41 2 -2 5 -34 6 -70z m-234 46 c0 -10 -30 -24 -37 -17 -3 3 -2
9 2 15 8 13 35 15 35 2z m290 -30 c0 -14 -18 -23 -30 -16 -6 4 -8 11 -5 16 8
12 35 12 35 0z m-103 -87 c-2 -3 -28 7 -57 22 -46 23 -51 28 -35 37 14 7 21 6
31 -8 13 -17 15 -16 36 11 l23 29 3 -44 c2 -24 1 -45 -1 -47z m169 49 c-3 -8
-6 -20 -6 -25 0 -6 -3 -9 -6 -5 -3 3 -19 1 -35 -5 -22 -7 -33 -7 -44 2 -18 15
-20 41 -2 34 7 -2 24 4 36 15 18 16 28 18 43 10 12 -6 17 -17 14 -26z m-209
-69 c-3 -3 -12 -4 -19 -1 -8 3 -5 6 6 6 11 1 17 -2 13 -5z"/>
<path d="M867 870 c-3 -11 -1 -20 4 -20 5 0 9 9 9 20 0 11 -2 20 -4 20 -2 0
-6 -9 -9 -20z"/>
<path d="M990 230 c0 -5 5 -10 11 -10 5 0 7 5 4 10 -3 6 -8 10 -11 10 -2 0 -4
-4 -4 -10z"/>
<path d="M964 1374 c-103 -65 -107 -69 -75 -59 30 9 125 66 129 77 2 4 10 8
17 8 7 0 15 7 19 15 3 8 4 15 3 15 -2 0 -43 -25 -93 -56z"/>
<path d="M1096 1403 c-6 -14 -5 -15 5 -6 7 7 10 15 7 18 -3 3 -9 -2 -12 -12z"/>
<path d="M966 1213 c-6 -14 -5 -15 5 -6 7 7 10 15 7 18 -3 3 -9 -2 -12 -12z"/>
<path d="M925 1190 c-3 -5 1 -10 9 -10 9 0 16 5 16 10 0 6 -4 10 -9 10 -6 0
-13 -4 -16 -10z"/>
<path d="M1231 994 c0 -11 3 -14 6 -6 3 7 2 16 -1 19 -3 4 -6 -2 -5 -13z"/>
</g>
</svg>
