<?xml version="1.0" standalone="no"?>
<!DOCTYPE svg PUBLIC "-//W3C//DTD SVG 20010904//EN"
 "http://www.w3.org/TR/2001/REC-SVG-20010904/DTD/svg10.dtd">
<svg version="1.0" xmlns="http://www.w3.org/2000/svg"
 width="151.000000pt" height="333.000000pt" viewBox="0 0 151.000000 333.000000"
 preserveAspectRatio="xMidYMid meet">

<g transform="translate(0.000000,333.000000) scale(0.100000,-0.100000)"
fill="#000000" stroke="none">
<path d="M430 3030 c0 -231 1 -250 18 -250 10 -1 5 -6 -13 -14 -17 -7 -38 -21
-47 -30 -15 -15 -17 -15 -23 4 -3 11 -12 20 -19 20 -22 0 -27 -13 -11 -30 14
-16 10 -29 -45 -146 -48 -101 -58 -130 -47 -136 12 -6 9 -27 -14 -120 -33
-131 -40 -268 -14 -268 8 0 15 -4 15 -10 0 -6 27 -10 60 -10 77 0 79 18 3 23
l-58 3 58 2 c75 3 74 22 -2 22 l-58 0 -6 46 c-9 85 20 139 91 162 17 6 32 10
32 9 0 -12 80 -310 84 -315 20 -19 12 24 -27 159 -25 85 -43 157 -41 161 12
19 42 6 54 -21 6 -16 20 -37 31 -47 14 -12 19 -31 19 -68 0 -28 4 -56 8 -62 4
-6 28 -8 56 -6 l48 4 -4 49 c-5 47 -4 48 26 55 49 10 92 41 111 80 19 40 19
39 -12 48 -17 6 -23 3 -23 -8 0 -9 -5 -16 -11 -16 -6 0 -9 9 -6 20 3 11 2 20
-3 20 -4 0 -11 -11 -14 -24 -5 -20 -61 -56 -70 -45 -1 2 -8 52 -14 111 -9 81
-18 120 -38 158 -25 48 -27 80 -4 80 5 0 15 -9 22 -19 11 -19 12 -19 39 1 16
12 50 23 78 26 46 4 51 7 51 28 0 33 -49 84 -90 94 l-35 8 33 1 c25 1 32 5 32
21 0 18 -7 20 -55 20 l-55 0 0 155 0 155 -35 0 -35 0 0 75 c0 68 -2 75 -20 75
-19 0 -20 -7 -20 -250z m233 -317 c-7 -2 -19 -2 -25 0 -7 3 -2 5 12 5 14 0 19
-2 13 -5z m-253 -7 c0 -2 -9 -6 -20 -9 -11 -3 -20 -1 -20 4 0 5 9 9 20 9 11 0
20 -2 20 -4z m19 -121 c0 -5 -6 1 -14 15 -8 14 -14 30 -14 35 0 6 6 -1 14 -15
8 -14 14 -29 14 -35z m-15 -35 c5 -17 4 -20 -2 -10 -5 8 -13 26 -16 40 -5 17
-4 20 2 10 5 -8 13 -26 16 -40z m65 -75 c0 -5 -8 6 -19 25 -11 19 -19 40 -19
45 0 6 8 -6 19 -25 11 -19 19 -39 19 -45z m-35 -5 c5 -17 4 -20 -2 -10 -5 8
-13 26 -16 40 -5 17 -4 20 2 10 5 -8 13 -26 16 -40z m26 -152 c0 -19 -2 -20
-10 -8 -13 19 -13 30 0 30 6 0 10 -10 10 -22z m240 1 c0 -6 -4 -7 -10 -4 -5 3
-10 11 -10 16 0 6 5 7 10 4 6 -3 10 -11 10 -16z m-64 -36 c-28 -24 -66 -31
-66 -12 0 6 8 9 18 7 9 -2 25 7 35 19 10 13 23 20 29 16 7 -4 1 -15 -16 -30z
m-180 -19 c2 -12 -1 -13 -12 -3 -7 6 -11 16 -8 21 7 11 17 3 20 -18z m189 -14
c-3 -5 -12 -10 -18 -10 -7 0 -6 4 3 10 19 12 23 12 15 0z m-40 -18 c-3 -3 -11
0 -18 7 -9 10 -8 11 6 5 10 -3 15 -9 12 -12z"/>
<path d="M630 2622 l-22 -18 42 -13 c33 -10 44 -10 50 -1 6 9 9 9 13 1 3 -7 5
-7 3 1 -2 8 -18 13 -40 14 -20 1 -39 4 -42 7 -9 9 43 20 66 14 11 -3 18 -1 14
4 -9 15 -61 10 -84 -9z"/>
<path d="M1240 2327 c0 -5 9 -20 20 -34 l20 -26 -20 -14 c-20 -14 -20 -25 -20
-449 0 -283 3 -434 10 -434 7 0 10 152 10 435 0 374 2 435 15 435 9 0 16 -14
20 -37 9 -54 13 -62 14 -28 1 46 -17 102 -44 132 -13 16 -25 24 -25 20z"/>
<path d="M752 2173 c-18 -76 -35 -148 -38 -160 -5 -17 -2 -23 9 -23 19 0 21 6
46 155 12 66 23 130 26 143 3 12 2 22 -3 22 -5 0 -23 -62 -40 -137z"/>
<path d="M853 2117 c-67 -12 -70 -31 -5 -24 l47 6 -42 -11 c-24 -6 -43 -15
-43 -19 0 -11 -1 -11 60 2 27 6 50 15 50 20 0 5 -4 9 -10 9 -5 0 -7 7 -4 15 4
8 5 14 3 14 -2 -1 -28 -6 -56 -12z"/>
<path d="M435 1938 c40 -131 40 -130 4 -220 -40 -104 -45 -184 -13 -220 19
-20 23 -40 29 -143 3 -66 17 -223 29 -350 16 -169 21 -262 16 -350 -3 -66 -3
-165 0 -220 l5 -100 113 -3 c86 -2 112 0 112 10 0 7 -5 76 -11 153 -16 212
-12 321 18 495 38 213 39 481 4 705 -30 196 -30 209 -1 240 l23 25 -167 0
-168 0 7 -22z"/>
<path d="M1165 1385 c-34 -27 -23 -34 15 -9 l25 16 -24 -21 c-13 -12 -21 -25
-17 -28 4 -4 16 2 27 14 15 15 19 25 12 37 -7 13 -12 12 -38 -9z"/>
<path d="M290 1380 c-37 -6 -40 -7 -15 -9 30 -3 30 -3 5 -11 -30 -9 -27 -11
23 -13 32 -2 37 1 37 21 0 12 -1 21 -2 20 -2 0 -23 -4 -48 -8z"/>
<path d="M1240 712 c0 -309 -2 -581 -4 -604 -2 -24 -1 -31 1 -15 6 37 21 34
25 -5 2 -18 2 237 0 567 -2 346 -7 604 -12 609 -6 6 -10 -212 -10 -552z"/>
<path d="M251 1215 c-1 -17 8 -48 19 -70 11 -22 20 -41 20 -42 0 -2 -13 -3
-30 -3 -16 0 -30 -4 -30 -10 0 -5 15 -10 34 -10 l33 0 -5 -70 c-4 -55 -2 -70
9 -70 11 0 13 15 11 70 l-4 70 36 0 c20 0 36 5 36 10 0 6 -15 10 -33 10 -43 0
-63 22 -81 90 -12 43 -15 49 -15 25z"/>
<path d="M351 1213 c0 -12 -4 -30 -7 -40 -5 -17 -5 -17 6 0 6 10 9 28 7 40 -4
22 -4 22 -6 0z"/>
<path d="M320 1130 c-6 -11 -8 -20 -6 -20 3 0 10 9 16 20 6 11 8 20 6 20 -3 0
-10 -9 -16 -20z"/>
<path d="M668 252 c-21 -2 -38 -7 -38 -12 0 -4 8 -7 18 -5 9 2 32 4 50 4 17 1
32 5 32 9 0 5 -6 8 -12 8 -7 -1 -30 -2 -50 -4z"/>
<path d="M510 240 c0 -5 23 -10 50 -10 28 0 50 5 50 10 0 6 -22 10 -50 10 -27
0 -50 -4 -50 -10z"/>
<path d="M665 220 c-38 -7 -38 -7 18 -9 32 0 57 3 57 9 0 11 -14 11 -75 0z"/>
<path d="M510 210 c0 -5 25 -10 55 -10 30 0 55 5 55 10 0 6 -25 10 -55 10 -30
0 -55 -4 -55 -10z"/>
</g>
</svg>
