<?xml version="1.0" standalone="no"?>
<!DOCTYPE svg PUBLIC "-//W3C//DTD SVG 20010904//EN"
 "http://www.w3.org/TR/2001/REC-SVG-20010904/DTD/svg10.dtd">
<svg version="1.0" xmlns="http://www.w3.org/2000/svg"
 width="194.000000pt" height="259.000000pt" viewBox="0 0 194.000000 259.000000"
 preserveAspectRatio="xMidYMid meet">

<g transform="translate(0.000000,259.000000) scale(0.100000,-0.100000)"
fill="#000000" stroke="none">
<path d="M1090 2200 c0 -5 7 -10 16 -10 8 0 12 5 9 10 -3 6 -10 10 -16 10 -5
0 -9 -4 -9 -10z"/>
<path d="M866 2024 c-4 -10 -1 -14 6 -12 15 5 23 28 10 28 -5 0 -13 -7 -16
-16z"/>
<path d="M1110 1725 c0 -14 4 -25 9 -25 4 0 6 11 3 25 -2 14 -6 25 -8 25 -2 0
-4 -11 -4 -25z"/>
<path d="M811 1504 c0 -11 3 -14 6 -6 3 7 2 16 -1 19 -3 4 -6 -2 -5 -13z"/>
<path d="M1361 1305 c0 -5 9 -21 20 -34 19 -23 20 -23 34 -5 8 10 14 24 14 29
0 6 -6 1 -14 -9 -14 -18 -15 -18 -34 5 -11 13 -20 20 -20 14z"/>
<path d="M1510 1290 c-8 -5 -12 -12 -9 -15 4 -3 12 1 19 10 14 17 11 19 -10 5z"/>
<path d="M1025 1249 c11 -13 21 -26 22 -28 2 -2 3 3 3 12 0 9 -10 22 -22 28
l-23 12 20 -24z"/>
<path d="M831 1154 c0 -11 3 -14 6 -6 3 7 2 16 -1 19 -3 4 -6 -2 -5 -13z"/>
<path d="M790 1119 c0 -5 5 -7 10 -4 6 3 10 8 10 11 0 2 -4 4 -10 4 -5 0 -10
-5 -10 -11z"/>
<path d="M1041 1019 c-7 -12 -10 -23 -7 -26 3 -3 8 2 12 11 5 14 9 14 23 4 14
-12 15 -11 1 7 -8 11 -15 21 -15 22 0 1 -7 -7 -14 -18z"/>
<path d="M1046 971 c-8 -33 -6 -80 4 -86 12 -7 14 -26 3 -24 -23 4 -43 -2 -38
-11 8 -12 65 -13 65 -1 0 5 9 11 21 14 16 4 18 9 10 24 -6 10 -15 36 -21 59
-10 41 -36 56 -44 25z"/>
<path d="M1110 925 c0 -8 5 -15 10 -15 6 0 10 -7 10 -15 0 -8 6 -15 13 -15 25
0 27 13 4 25 -12 6 -21 17 -19 23 1 7 -2 12 -8 12 -5 0 -10 -7 -10 -15z"/>
<path d="M840 900 c-6 -11 -7 -20 -2 -20 6 0 12 9 15 20 3 11 3 20 1 20 -2 0
-8 -9 -14 -20z"/>
<path d="M1016 907 c3 -10 9 -15 12 -12 3 3 0 11 -7 18 -10 9 -11 8 -5 -6z"/>
<path d="M1519 812 c12 -18 27 -32 32 -32 15 0 11 14 -9 31 -37 31 -45 32 -23
1z"/>
<path d="M1052 800 c0 -19 2 -27 5 -17 2 9 2 25 0 35 -3 9 -5 1 -5 -18z"/>
<path d="M1588 743 c7 -3 16 -2 19 1 4 3 -2 6 -13 5 -11 0 -14 -3 -6 -6z"/>
<path d="M1001 704 c0 -11 3 -14 6 -6 3 7 2 16 -1 19 -3 4 -6 -2 -5 -13z"/>
<path d="M1600 694 c0 -22 2 -25 15 -14 12 10 13 16 4 26 -16 20 -19 18 -19
-12z"/>
<path d="M1064 677 c3 -10 6 -24 6 -31 0 -9 9 -12 25 -8 30 5 34 22 5 22 -10
0 -24 8 -30 18 -11 16 -11 16 -6 -1z"/>
<path d="M1005 630 c4 -32 2 -41 -5 -30 -6 9 -10 10 -10 3 0 -18 19 -26 25
-11 2 7 0 29 -5 48 -9 33 -9 33 -5 -10z"/>
<path d="M1162 648 c1 -7 -3 -23 -10 -35 -15 -27 -5 -31 14 -5 16 21 18 52 4
52 -6 0 -10 -6 -8 -12z"/>
<path d="M1120 414 c0 -8 5 -12 10 -9 6 3 10 10 10 16 0 5 -4 9 -10 9 -5 0
-10 -7 -10 -16z"/>
<path d="M979 278 c-7 -13 -16 -26 -21 -29 -4 -3 5 -17 20 -32 25 -24 33 -26
55 -18 27 10 45 50 32 70 -9 16 -25 13 -25 -5 0 -8 -5 -12 -10 -9 -6 3 -13 -1
-16 -9 -12 -30 -25 -16 -18 19 7 40 0 45 -17 13z"/>
<path d="M1107 263 c7 -2 15 -20 19 -39 3 -19 12 -34 20 -34 8 0 11 7 8 18
-13 40 -28 62 -43 61 -10 0 -11 -2 -4 -6z"/>
<path d="M1067 206 c-6 -16 33 -37 66 -35 17 1 15 3 -10 11 -18 6 -33 17 -33
24 0 18 -16 18 -23 0z"/>
</g>
</svg>
