<?xml version="1.0" standalone="no"?>
<!DOCTYPE svg PUBLIC "-//W3C//DTD SVG 20010904//EN"
 "http://www.w3.org/TR/2001/REC-SVG-20010904/DTD/svg10.dtd">
<svg version="1.0" xmlns="http://www.w3.org/2000/svg"
 width="150.000000pt" height="300.000000pt" viewBox="0 0 150.000000 300.000000"
 preserveAspectRatio="xMidYMid meet">

<g transform="translate(0.000000,300.000000) scale(0.100000,-0.100000)"
fill="#000000" stroke="none">
<path d="M825 2864 c-16 -8 -21 -11 -10 -8 11 3 45 10 75 14 l55 7 -45 1 c-25
1 -58 -6 -75 -14z"/>
<path d="M180 2831 c-14 -28 -13 -33 8 -20 10 7 19 18 19 25 0 20 -15 17 -27
-5z"/>
<path d="M731 2804 c-12 -15 -21 -32 -21 -38 0 -6 9 3 19 20 11 18 25 34 33
37 8 3 9 6 1 6 -6 1 -21 -11 -32 -25z"/>
<path d="M835 2801 c-11 -4 -46 -19 -77 -34 -52 -26 -57 -31 -66 -72 -9 -44 3
-135 18 -135 4 0 17 -23 29 -50 20 -47 28 -97 20 -130 -3 -10 5 -16 24 -18 22
-3 27 1 27 17 0 17 5 20 28 15 21 -4 36 2 67 30 31 27 36 34 20 33 -44 -2 -76
14 -91 46 -8 18 -24 47 -34 65 -23 38 -19 53 11 45 12 -3 24 -1 28 6 5 8 12 6
23 -6 13 -14 15 -28 9 -58 -10 -51 -5 -65 22 -64 21 0 21 1 2 9 -17 7 -16 9
10 10 17 1 24 4 17 7 -9 4 -10 9 -2 18 8 9 6 14 -5 19 -9 3 -15 18 -15 40 0
44 -25 61 -66 46 -23 -9 -26 -8 -22 7 4 16 -3 18 -51 20 -56 2 -56 2 -22 -11
24 -9 31 -15 22 -20 -15 -10 -61 12 -61 29 0 6 18 28 40 50 28 28 48 38 70 38
17 0 26 3 20 7 -18 11 15 20 74 20 42 0 59 -5 82 -25 15 -13 30 -22 33 -20 7
7 -32 46 -54 55 -33 12 -109 19 -130 11z"/>
<path d="M205 2770 c3 -5 8 -10 11 -10 2 0 4 5 4 10 0 6 -5 10 -11 10 -5 0 -7
-4 -4 -10z"/>
<path d="M855 2750 c-3 -6 1 -7 9 -4 18 7 21 14 7 14 -6 0 -13 -4 -16 -10z"/>
<path d="M860 2720 c-6 -11 -20 -20 -33 -19 -21 0 -21 1 -2 9 14 5 6 7 -26 5
-84 -4 -90 -32 -8 -39 48 -4 112 20 89 34 -7 4 -9 13 -6 19 4 6 5 11 2 11 -3
0 -10 -9 -16 -20z"/>
<path d="M980 2731 c0 -5 5 -13 10 -16 6 -3 10 -2 10 4 0 5 -4 13 -10 16 -5 3
-10 2 -10 -4z"/>
<path d="M943 2688 c45 -40 47 -56 7 -50 -26 4 -30 1 -30 -18 0 -16 5 -20 18
-16 32 10 44 -7 34 -52 -9 -39 -9 -41 9 -31 11 5 22 23 26 40 3 16 9 32 13 34
5 3 4 21 -1 40 -6 19 -7 40 -4 45 3 6 -3 10 -14 10 -10 0 -21 4 -23 9 -1 5
-19 12 -38 15 l-35 7 38 -33z"/>
<path d="M107 2697 c-3 -8 1 -23 8 -34 8 -10 15 -26 15 -36 0 -9 9 -25 20 -34
15 -13 20 -30 20 -70 0 -38 4 -53 14 -53 10 0 13 21 12 100 -1 95 -6 115 -22
88 -5 -8 -9 -6 -14 6 -3 10 -9 16 -12 14 -4 -2 -13 6 -21 16 -12 16 -15 17
-20 3z"/>
<path d="M90 2625 c-4 -32 -8 -155 -4 -130 3 17 9 41 14 55 6 15 6 37 1 55 -5
17 -10 26 -11 20z"/>
<path d="M67 2430 c-8 -36 1 -142 15 -188 5 -17 17 -36 27 -41 10 -6 67 -15
127 -21 108 -12 134 -21 134 -46 0 -7 10 -14 22 -16 14 -2 25 -13 29 -28 l7
-25 1 28 c1 15 8 30 16 33 11 5 15 22 14 68 -1 33 -4 72 -8 86 -6 22 -8 20
-14 -18 -9 -53 -29 -62 -131 -62 -119 0 -127 6 -198 141 -10 20 -21 53 -23 74
-7 50 -11 53 -18 15z"/>
<path d="M172 2415 c0 -16 2 -22 5 -12 2 9 2 23 0 30 -3 6 -5 -1 -5 -18z"/>
<path d="M986 2345 c4 -8 10 -15 14 -15 14 0 91 -120 107 -165 12 -37 13 -57
4 -108 -15 -84 -14 -107 3 -107 8 0 17 -7 20 -16 12 -30 16 -8 5 24 -7 22 -8
40 -1 59 10 26 11 24 13 -22 4 -84 6 -99 16 -125 6 -14 19 -32 29 -40 16 -14
16 -13 -1 19 -11 21 -18 62 -20 106 -1 40 -8 81 -14 93 -6 11 -11 37 -11 56 0
47 -38 130 -85 186 -40 49 -89 83 -79 55z"/>
<path d="M789 2273 c18 -36 131 -117 131 -93 0 5 -6 10 -14 10 -7 0 -26 10
-40 21 -22 17 -25 24 -14 31 9 6 6 7 -8 3 -16 -4 -28 2 -43 22 -15 19 -19 21
-12 6z"/>
<path d="M1138 2261 c9 -16 18 -28 20 -27 5 6 -21 56 -29 56 -5 0 0 -13 9 -29z"/>
<path d="M766 2247 c3 -10 9 -15 12 -12 3 3 0 11 -7 18 -10 9 -11 8 -5 -6z"/>
<path d="M812 2200 c15 -11 25 -27 22 -34 -7 -19 56 -46 108 -45 42 1 42 1 13
10 -16 5 -42 10 -57 11 -15 0 -25 5 -22 9 2 4 -1 11 -7 15 -8 5 -9 3 -4 -6 5
-8 3 -11 -4 -9 -7 3 -11 7 -9 10 5 9 -23 39 -46 50 -14 7 -12 3 6 -11z"/>
<path d="M1167 2189 c4 -13 8 -18 11 -10 2 7 -1 18 -6 23 -8 8 -9 4 -5 -13z"/>
<path d="M506 2151 c-3 -23 -10 -41 -15 -41 -17 0 -21 -32 -6 -46 8 -9 15 -29
15 -46 0 -57 10 -22 19 68 9 90 -1 140 -13 65z"/>
<path d="M617 2169 c-9 -36 -6 -428 4 -404 6 15 8 9 9 -25 1 -25 4 -36 7 -25
3 11 9 25 15 30 6 6 7 3 2 -9 -6 -15 -4 -18 8 -14 10 4 24 -8 43 -38 15 -24
30 -43 32 -41 2 3 -10 38 -27 80 -16 41 -30 80 -30 85 0 6 -5 12 -11 14 -9 3
-9 34 -4 113 5 61 10 103 11 95 1 -8 8 -51 15 -95 6 -44 22 -102 35 -130 22
-48 104 -158 112 -150 2 1 -15 34 -38 72 -23 37 -51 90 -62 117 -23 59 -59
228 -56 265 1 14 -7 39 -17 55 -17 26 -20 27 -26 10 -6 -18 -7 -18 -11 1 -3
18 -5 17 -11 -6z"/>
<path d="M1181 2134 c0 -11 3 -14 6 -6 3 7 2 16 -1 19 -3 4 -6 -2 -5 -13z"/>
<path d="M540 2099 c0 -18 -5 -70 -11 -118 -10 -73 -9 -91 4 -121 15 -34 15
-29 16 118 1 83 -1 152 -4 152 -3 0 -5 -14 -5 -31z"/>
<path d="M691 2100 c-1 -18 7 -29 37 -54 32 -27 27 -6 -8 34 -17 21 -29 29
-29 20z"/>
<path d="M775 2094 c11 -8 33 -18 48 -21 21 -4 25 -8 15 -15 -8 -6 20 -8 74
-6 58 2 91 8 100 17 11 12 10 13 -7 6 -37 -14 -116 -18 -138 -7 -31 16 -98 42
-106 42 -3 0 3 -8 14 -16z"/>
<path d="M908 2103 c7 -3 16 -2 19 1 4 3 -2 6 -13 5 -11 0 -14 -3 -6 -6z"/>
<path d="M583 2050 c0 -30 2 -43 4 -27 2 15 2 39 0 55 -2 15 -4 2 -4 -28z"/>
<path d="M440 2080 c0 -5 5 -10 11 -10 5 0 7 5 4 10 -3 6 -8 10 -11 10 -2 0
-4 -4 -4 -10z"/>
<path d="M1060 2039 c0 -5 5 -7 10 -4 6 3 10 8 10 11 0 2 -4 4 -10 4 -5 0 -10
-5 -10 -11z"/>
<path d="M569 1883 c-1 -60 -4 -97 -7 -83 -4 19 -8 11 -17 -35 -10 -48 -10
-65 0 -84 8 -16 14 -20 19 -12 10 15 21 321 13 321 -4 0 -8 -48 -8 -107z"/>
<path d="M1101 1895 c0 -22 4 -47 9 -55 7 -11 9 -8 9 15 -1 17 -5 41 -9 55 -7
22 -8 20 -9 -15z"/>
<path d="M1081 1898 c0 -9 -10 -37 -21 -62 -10 -25 -17 -46 -15 -46 11 0 46
90 42 107 -4 15 -5 15 -6 1z"/>
<path d="M1196 1775 c9 -14 21 -25 28 -25 6 0 4 5 -4 10 -8 5 -11 10 -6 10 11
0 -14 30 -25 30 -5 0 -2 -11 7 -25z"/>
<path d="M1116 1775 c-3 -9 -6 -24 -5 -33 0 -9 5 -4 10 12 9 32 6 48 -5 21z"/>
<path d="M1248 1733 c6 -2 18 -2 25 0 6 3 1 5 -13 5 -14 0 -19 -2 -12 -5z"/>
<path d="M1209 1717 c15 -19 46 -23 56 -7 3 6 0 10 -7 10 -7 0 -24 3 -38 7
-22 6 -24 5 -11 -10z"/>
<path d="M1075 1709 c-4 -6 -5 -12 -2 -15 2 -3 7 2 10 11 7 17 1 20 -8 4z"/>
<path d="M1171 1700 c-1 -21 7 -29 44 -44 l45 -19 2 -61 c0 -34 1 -67 1 -73
-1 -20 15 -15 28 8 14 26 3 103 -16 119 -21 18 -8 31 23 24 25 -5 25 -4 10 9
-24 19 -23 27 5 27 19 1 20 2 5 11 -13 7 -26 5 -47 -6 -41 -21 -66 -19 -84 8
l-16 22 0 -25z"/>
<path d="M618 1650 c-7 -24 -3 -38 8 -28 3 4 4 17 2 30 l-3 23 -7 -25z"/>
<path d="M693 1637 c0 -21 5 -41 9 -43 11 -7 9 36 -2 61 -7 16 -9 12 -7 -18z"/>
<path d="M517 1599 c-11 -15 -16 -17 -20 -7 -3 7 -6 -4 -6 -24 -1 -30 6 -44
34 -72 45 -45 86 -53 177 -32 39 9 73 14 75 12 2 -2 -29 -13 -69 -25 -65 -19
-68 -21 -27 -16 52 5 140 36 120 43 -6 2 14 17 46 32 68 33 65 38 -6 10 -27
-10 -83 -22 -125 -26 -88 -8 -147 9 -187 53 -13 14 -19 23 -12 20 7 -5 9 -1 6
12 -6 23 34 36 56 18 14 -11 14 -10 2 6 -18 23 -47 22 -64 -4z"/>
<path d="M1400 1612 c0 -5 7 -15 15 -22 8 -7 15 -8 15 -2 0 5 -7 15 -15 22 -8
7 -15 8 -15 2z"/>
<path d="M705 1570 c3 -5 14 -10 23 -10 15 0 15 2 2 10 -20 13 -33 13 -25 0z"/>
<path d="M579 1530 c24 -21 67 -28 56 -10 -3 6 -15 10 -25 10 -10 0 -22 5 -25
10 -3 6 -12 10 -18 10 -7 -1 -1 -10 12 -20z"/>
<path d="M896 1493 c-32 -20 -68 -37 -80 -38 -12 -2 -39 -10 -60 -19 -81 -34
-192 -11 -250 50 -40 43 -33 11 18 -91 26 -52 43 -96 40 -109 -21 -99 -14
-306 10 -287 7 6 12 25 11 43 -2 18 2 39 8 46 8 10 8 15 0 20 -6 4 -9 20 -8
37 2 16 -1 33 -7 37 -9 5 -9 10 0 20 6 8 10 30 7 49 -5 47 12 66 70 75 46 7
48 8 20 14 l-30 6 35 8 c51 12 202 68 197 73 -3 2 -29 -5 -58 -17 -60 -22 -91
-27 -44 -6 59 26 204 126 183 126 -2 0 -30 -16 -62 -37z m-86 -48 c0 -6 -56
-35 -67 -35 -4 1 8 9 27 20 39 22 40 22 40 15z m-193 -101 c-3 -3 -12 -4 -19
-1 -8 3 -5 6 6 6 11 1 17 -2 13 -5z"/>
<path d="M665 1510 c27 -12 43 -12 25 0 -8 5 -22 9 -30 9 -10 0 -8 -3 5 -9z"/>
<path d="M987 1474 c-4 -4 -7 -17 -7 -28 1 -19 1 -20 11 -3 11 19 8 43 -4 31z"/>
<path d="M1212 1455 c0 -16 2 -22 5 -12 2 9 2 23 0 30 -3 6 -5 -1 -5 -18z"/>
<path d="M1257 1440 c-10 -16 -23 -29 -30 -27 -6 1 -12 -2 -12 -8 -1 -5 -5
-43 -10 -82 -4 -40 -11 -70 -15 -68 -10 6 -19 -94 -25 -280 -3 -77 -8 -164
-11 -192 -5 -39 -3 -53 6 -53 9 0 11 -33 6 -143 -13 -323 -16 -484 -7 -517 7
-27 8 -17 4 40 -4 69 -3 73 11 56 8 -10 17 -24 19 -30 2 -6 8 -8 12 -4 5 5 0
17 -11 29 -17 19 -19 36 -16 178 3 220 27 493 41 475 3 -5 14 -15 23 -22 15
-12 16 -4 12 115 -2 70 0 153 6 183 8 50 9 47 4 -30 -3 -64 -1 -90 10 -105 8
-11 16 -32 19 -45 l4 -25 8 23 c6 18 10 20 21 11 8 -7 17 -9 21 -6 3 3 -11 16
-31 28 -36 21 -48 49 -21 49 8 0 15 5 15 11 0 6 -7 9 -15 5 -12 -4 -15 5 -15
54 0 62 9 73 32 43 15 -20 58 -47 64 -40 2 2 -2 15 -9 30 -9 19 -20 27 -39 27
-15 0 -30 5 -33 10 -3 6 0 10 8 10 26 0 36 24 43 114 5 66 4 87 -5 82 -6 -4
-11 -34 -11 -71 0 -57 -2 -64 -17 -58 -10 4 -30 18 -45 32 -23 22 -26 32 -26
88 0 60 11 83 21 46 3 -10 5 -3 6 15 1 19 6 32 14 32 19 0 37 -21 37 -42 0
-10 4 -18 9 -18 15 0 -2 43 -29 78 l-26 32 -17 -30z m71 -268 c2 -7 -4 -15
-13 -18 -20 -8 -27 -1 -19 20 7 18 25 17 32 -2z"/>
<path d="M872 1408 c-47 -21 -53 -35 -7 -18 22 8 30 8 36 -2 6 -9 10 -8 14 4
12 31 1 35 -43 16z"/>
<path d="M1377 1348 c-6 -23 -1 -38 12 -38 15 0 19 39 6 50 -9 8 -14 5 -18
-12z"/>
<path d="M1262 1300 c0 -19 2 -27 5 -17 2 9 2 25 0 35 -3 9 -5 1 -5 -18z"/>
<path d="M1325 1021 c-3 -5 -1 -12 5 -16 5 -3 10 1 10 9 0 18 -6 21 -15 7z"/>
<path d="M551 928 c3 -101 -16 -207 -40 -222 -14 -9 -32 -76 -24 -89 7 -12 24
25 29 62 1 13 10 31 18 40 9 10 16 23 16 30 0 7 6 11 13 8 18 -6 9 -59 -14
-79 -17 -15 -18 -18 -3 -32 8 -9 13 -20 9 -26 -3 -6 1 -7 9 -4 11 4 16 0 16
-12 0 -12 12 0 33 31 17 28 42 54 54 60 49 21 39 55 -16 55 -29 0 -44 7 -65
30 -24 28 -25 32 -11 47 9 8 14 22 10 31 -3 8 0 21 6 29 10 11 8 15 -10 20
-21 5 -21 7 -5 24 13 14 14 19 4 19 -9 0 -7 5 6 15 18 14 18 14 -9 15 -28 0
-28 -1 -26 -52z"/>
<path d="M755 759 c-4 -6 -5 -12 -2 -15 2 -3 7 2 10 11 7 17 1 20 -8 4z"/>
<path d="M762 728 c-6 -13 -11 -17 -11 -10 -1 15 -21 6 -21 -9 0 -6 5 -7 10
-4 6 3 10 0 10 -7 1 -7 8 0 16 15 9 16 14 31 11 33 -2 2 -9 -6 -15 -18z"/>
<path d="M1092 630 c0 -19 2 -27 5 -17 2 9 2 25 0 35 -3 9 -5 1 -5 -18z"/>
<path d="M508 596 c-24 -9 -28 -15 -28 -50 0 -23 -4 -68 -10 -100 -7 -42 -6
-63 1 -73 18 -20 26 -16 33 18 3 17 13 46 22 66 15 30 15 36 3 44 -12 7 -12 9
0 9 17 0 51 38 51 57 0 8 -4 11 -10 8 -5 -3 -10 1 -10 10 0 9 -4 14 -9 11 -5
-4 -11 -3 -13 2 -1 4 -15 3 -30 -2z"/>
<path d="M671 563 c-10 -26 -10 -27 4 -9 8 11 15 23 15 28 0 15 -7 8 -19 -19z"/>
<path d="M1072 484 c-7 -43 -12 -93 -12 -111 0 -23 -6 -36 -22 -44 -14 -8 -18
-14 -10 -17 6 -2 12 -18 13 -35 1 -28 2 -29 7 -9 4 13 10 23 15 23 4 -1 13 -1
21 -1 17 0 35 -50 38 -104 1 -37 2 -36 7 14 5 45 3 59 -12 77 -12 14 -17 29
-12 42 5 17 2 21 -14 21 -24 0 -24 -2 -10 113 14 112 7 135 -9 31z"/>
<path d="M457 339 c11 -13 9 -20 -7 -39 -27 -31 -25 -47 6 -54 14 -4 33 -20
42 -36 9 -17 24 -30 32 -30 12 0 12 -2 1 -9 -10 -6 -10 -10 -1 -16 6 -4 17 -2
23 4 14 14 30 14 22 1 -4 -6 -11 -25 -15 -43 -9 -29 -8 -30 5 -13 8 11 17 34
21 51 5 30 34 46 34 19 0 -19 28 -25 33 -6 3 11 5 9 7 -8 l2 -25 9 25 c6 18 7
8 4 -32 -7 -84 12 -80 26 6 11 63 16 74 32 73 17 -1 19 -8 15 -74 -2 -40 0
-73 4 -73 5 0 8 24 8 53 0 75 11 127 25 127 8 0 15 -6 18 -12 3 -10 7 -10 20
0 14 12 16 8 20 -35 l3 -48 2 48 c1 27 8 54 15 61 20 20 85 48 96 42 5 -4 12
-2 16 4 10 17 -33 11 -75 -10 -22 -11 -46 -20 -55 -20 -8 0 -41 -9 -71 -20
-118 -41 -208 -34 -285 21 -36 26 -33 33 9 18 24 -8 37 -7 61 6 38 19 41 28 5
15 -33 -13 -81 -13 -89 0 -4 6 5 7 24 4 16 -3 37 -1 48 5 10 6 13 11 5 11 -7
0 -10 5 -7 10 8 12 8 12 -34 0 -25 -7 -39 -6 -50 3 -14 10 -14 10 -4 -4z m76
-16 c-7 -2 -21 -2 -30 0 -10 3 -4 5 12 5 17 0 24 -2 18 -5z"/>
<path d="M990 305 c0 -8 5 -15 10 -15 6 0 10 7 10 15 0 8 -4 15 -10 15 -5 0
-10 -7 -10 -15z"/>
<path d="M863 155 c0 -33 2 -45 4 -27 2 18 2 45 0 60 -2 15 -4 0 -4 -33z"/>
<path d="M401 174 c0 -11 3 -14 6 -6 3 7 2 16 -1 19 -3 4 -6 -2 -5 -13z"/>
<path d="M406 141 c-3 -5 1 -12 10 -15 20 -8 29 -1 19 13 -8 13 -22 14 -29 2z"/>
<path d="M507 139 c7 -7 15 -10 18 -7 3 3 -2 9 -12 12 -14 6 -15 5 -6 -5z"/>
<path d="M841 82 c-1 -35 -5 -44 -23 -51 -14 -5 -26 -5 -29 1 -4 7 -13 7 -25
-1 -18 -10 -18 -10 1 -12 11 -1 35 -1 53 0 17 2 32 -2 32 -8 0 -6 16 -11 35
-11 38 0 48 19 15 27 -11 3 -20 10 -20 15 0 6 -7 7 -16 4 -13 -5 -15 -1 -11
16 3 13 1 32 -3 43 -7 15 -9 10 -9 -23z"/>
<path d="M930 100 c0 -5 5 -10 10 -10 6 0 10 5 10 10 0 6 -4 10 -10 10 -5 0
-10 -4 -10 -10z"/>
<path d="M960 101 c0 -4 11 -13 25 -19 14 -6 25 -8 25 -3 0 4 -11 13 -25 19
-14 6 -25 8 -25 3z"/>
<path d="M386 33 c-9 -9 -7 -33 3 -33 12 0 22 28 12 34 -5 3 -11 3 -15 -1z"/>
<path d="M470 30 c0 -6 7 -10 15 -10 8 0 15 2 15 4 0 2 -7 6 -15 10 -8 3 -15
1 -15 -4z"/>
<path d="M350 20 c0 -5 5 -10 11 -10 5 0 7 5 4 10 -3 6 -8 10 -11 10 -2 0 -4
-4 -4 -10z"/>
</g>
</svg>
