<?xml version="1.0" standalone="no"?>
<!DOCTYPE svg PUBLIC "-//W3C//DTD SVG 20010904//EN"
 "http://www.w3.org/TR/2001/REC-SVG-20010904/DTD/svg10.dtd">
<svg version="1.0" xmlns="http://www.w3.org/2000/svg"
 width="182.000000pt" height="276.000000pt" viewBox="0 0 182.000000 276.000000"
 preserveAspectRatio="xMidYMid meet">

<g transform="translate(0.000000,276.000000) scale(0.100000,-0.100000)"
fill="#000000" stroke="none">
<path d="M720 2555 c9 -11 9 -15 1 -15 -7 0 -9 -4 -6 -10 3 -5 1 -10 -4 -10
-18 0 -12 -26 9 -45 19 -17 18 -41 -1 -30 -12 8 -11 -27 2 -62 8 -22 7 -30 -6
-39 -14 -11 -14 -12 1 -18 16 -6 15 -8 -2 -20 -17 -13 -16 -14 11 -10 l30 5
-25 -14 -24 -15 23 -4 c23 -3 22 -5 -14 -30 l-38 -27 42 -17 c33 -13 40 -20
36 -35 -7 -20 9 -26 20 -8 4 6 14 8 22 5 26 -11 35 5 18 31 -10 14 -12 22 -6
19 7 -5 9 -1 5 8 -3 9 -13 16 -20 16 -11 0 -12 4 -5 19 8 15 7 20 -5 25 -12 5
-14 9 -5 20 12 14 12 66 0 66 -14 0 3 39 19 45 9 3 14 3 10 0 -3 -4 -1 -21 5
-38 l12 -32 5 35 c4 19 2 43 -3 54 -6 13 -6 16 2 12 6 -4 11 0 11 8 0 9 -4 16
-10 16 -5 0 -10 5 -10 11 0 15 -48 71 -74 86 -29 17 -41 16 -26 -2z"/>
<path d="M654 2411 c4 -5 0 -12 -6 -14 -7 -3 -3 -6 10 -6 13 -1 22 5 22 14 0
8 -7 15 -16 15 -8 0 -13 -4 -10 -9z"/>
<path d="M853 2184 c-9 -25 18 -36 40 -16 18 16 18 17 0 23 -28 11 -33 10 -40
-7z"/>
<path d="M1070 2186 c0 -9 30 -14 35 -6 4 6 -3 10 -14 10 -12 0 -21 -2 -21 -4z"/>
<path d="M970 2170 c0 -16 28 -24 43 -12 6 5 21 12 32 15 11 2 -1 5 -27 6 -27
0 -48 -4 -48 -9z"/>
<path d="M1130 2156 c0 -14 -4 -28 -10 -31 -5 -3 -10 -19 -10 -34 0 -15 -3
-31 -7 -34 -11 -12 -43 -110 -43 -133 0 -13 -6 -29 -12 -36 -7 -7 -24 -35 -38
-61 -25 -48 -25 -48 -5 -63 20 -15 62 -15 96 0 15 6 17 -1 18 -56 0 -34 5 -64
10 -66 7 -2 6 -10 0 -21 -9 -13 -6 -26 10 -56 11 -22 21 -50 21 -62 0 -13 5
-23 11 -23 8 0 10 -13 6 -36 -4 -26 0 -50 13 -80 29 -63 25 -93 -13 -107 -10
-4 -15 -11 -12 -17 3 -5 0 -10 -7 -10 -9 0 -9 -3 2 -10 11 -7 12 -10 2 -10 -8
0 -28 -6 -45 -14 -18 -8 -43 -16 -56 -18 -13 -2 -29 -12 -35 -23 -6 -11 -15
-24 -21 -28 -11 -8 15 -4 108 19 36 9 63 11 74 6 9 -5 25 -7 36 -4 14 3 18 1
13 -6 -9 -15 -43 -16 -51 -2 -5 8 -11 7 -21 -1 -8 -6 -14 -8 -14 -4 0 5 -8 1
-17 -7 -10 -9 -45 -19 -78 -24 -59 -8 -59 -9 -17 -12 31 -2 42 -8 43 -20 0
-10 3 -12 6 -4 7 17 40 15 47 -4 11 -28 6 -39 -9 -20 -14 19 -15 19 -15 -6 0
-15 5 -30 10 -33 6 -3 10 -11 10 -16 0 -6 -4 -8 -9 -5 -5 3 -24 -11 -43 -32
-19 -21 -41 -36 -49 -34 -12 3 -12 2 0 -7 25 -17 -2 -59 -43 -66 -19 -4 -39
-4 -45 -1 -5 4 -13 2 -16 -4 -4 -6 -1 -9 7 -8 8 2 13 -6 12 -19 0 -18 2 -20
13 -11 10 8 17 8 25 0 8 -8 7 -13 -4 -17 -9 -4 -13 -16 -11 -38 2 -18 0 -26
-3 -19 -9 19 -28 14 -62 -16 -24 -21 -29 -31 -20 -40 8 -8 7 -13 -5 -18 -21
-8 -34 -89 -17 -109 7 -8 9 -15 6 -15 -4 0 3 -11 16 -25 13 -13 28 -30 33 -37
15 -19 45 -100 45 -123 0 -10 8 -27 17 -37 9 -10 17 -26 18 -36 5 -53 18 -101
26 -96 5 3 9 -6 9 -20 0 -13 5 -37 11 -53 7 -15 15 -44 18 -63 l6 -35 147 -3
147 -3 7 38 c4 21 2 63 -4 93 -7 31 -12 74 -12 96 -1 47 -26 127 -71 220 -19
38 -32 79 -30 92 1 13 -3 30 -10 39 -8 9 -14 44 -14 87 -1 39 -7 88 -14 109
-12 36 -11 95 2 142 37 130 50 186 50 215 1 50 -13 119 -25 126 -7 4 -8 2 -4
-4 4 -7 2 -12 -4 -12 -7 0 -9 7 -6 16 3 8 -1 53 -9 98 -8 46 -17 168 -20 271
-3 103 -8 192 -12 198 -3 5 -5 72 -4 148 1 103 -2 147 -13 174 -17 40 -36 46
-36 11z m67 -921 c0 -8 -4 -15 -9 -15 -4 0 -8 7 -8 15 0 8 4 15 8 15 5 0 9 -7
9 -15z m-100 -71 c-3 -3 -12 -4 -19 -1 -8 3 -5 6 6 6 11 1 17 -2 13 -5z m3
-274 c0 -5 -4 -10 -10 -10 -5 0 -10 5 -10 10 0 6 5 10 10 10 6 0 10 -4 10 -10z
m-40 -31 c0 -5 -4 -9 -10 -9 -5 0 -10 7 -10 16 0 8 5 12 10 9 6 -3 10 -10 10
-16z m46 -5 c-18 -17 -21 -28 -6 -19 6 3 10 0 10 -8 0 -22 30 -16 31 7 0 21 0
21 9 -1 5 -11 6 -31 3 -44 -6 -21 -7 -21 -19 -4 -8 10 -16 16 -19 13 -4 -3 5
-18 19 -33 15 -16 26 -33 26 -38 0 -6 -7 -2 -15 9 -14 18 -14 17 -16 -16 -1
-34 -1 -33 -15 15 -7 28 -12 56 -9 62 2 7 -7 16 -20 19 -31 8 -32 18 -3 38 29
21 44 21 24 0z m-51 -170 c-3 -24 -10 -44 -15 -44 -5 0 -7 -6 -4 -14 4 -10 -1
-14 -15 -13 -13 1 -19 6 -17 14 3 6 -3 14 -12 17 -9 2 -6 4 8 3 25 -2 25 -2
46 88 11 44 18 4 9 -51z m-33 -6 c-7 -7 -12 -8 -12 -2 0 14 12 26 19 19 2 -3
-1 -11 -7 -17z m168 12 c0 -5 -5 -10 -11 -10 -5 0 -7 5 -4 10 3 6 8 10 11 10
2 0 4 -4 4 -10z m6 -107 c-3 -4 -6 -1 -6 6 0 7 -4 9 -10 6 -6 -4 -7 1 -3 11 6
15 7 15 15 -1 6 -9 7 -19 4 -22z m-22 -49 l6 -39 -13 42 c-6 23 -15 45 -19 49
-5 4 -8 12 -8 18 0 25 29 -34 34 -70z m-74 -94 c0 -47 -4 -80 -10 -80 -5 0
-10 15 -10 34 0 40 11 126 16 126 2 0 4 -36 4 -80z"/>
<path d="M785 2140 c-3 -5 -1 -10 4 -10 6 0 11 5 11 10 0 6 -2 10 -4 10 -3 0
-8 -4 -11 -10z"/>
<path d="M778 2113 c7 -3 16 -2 19 1 4 3 -2 6 -13 5 -11 0 -14 -3 -6 -6z"/>
<path d="M791 1767 c-51 -25 -61 -42 -32 -52 32 -10 91 30 91 61 0 19 -7 18
-59 -9z"/>
<path d="M655 1752 c5 -17 3 -21 -10 -16 -9 4 -35 -1 -59 -10 -34 -13 -45 -23
-49 -44 -3 -15 -3 -30 0 -34 12 -21 120 0 154 28 21 19 26 18 33 -8 5 -19 8
-21 16 -8 17 26 11 48 -17 58 -16 5 -39 20 -52 32 -23 23 -23 23 -16 2z"/>
<path d="M1024 1606 c-7 -19 6 -51 21 -51 4 0 12 10 16 23 5 14 5 21 -1 17 -5
-3 -13 3 -19 12 -9 17 -10 17 -17 -1z"/>
<path d="M685 1120 c-13 -6 -15 -9 -5 -9 8 0 22 4 30 9 18 12 2 12 -25 0z"/>
<path d="M704 1094 c-18 -14 -18 -15 4 -4 12 6 22 13 22 15 0 8 -5 6 -26 -11z"/>
<path d="M705 1010 c-4 -6 -10 -8 -15 -5 -5 3 -25 -6 -46 -20 -44 -30 -33 -34
14 -5 51 31 26 2 -26 -31 -52 -33 -51 -36 4 -13 37 16 53 30 75 67 10 18 5 25
-6 7z"/>
<path d="M1040 992 c0 -4 9 -13 20 -20 19 -12 20 -11 8 8 -13 20 -28 27 -28
12z"/>
<path d="M895 840 c3 -5 8 -10 11 -10 2 0 4 5 4 10 0 6 -5 10 -11 10 -5 0 -7
-4 -4 -10z"/>
<path d="M926 772 c-3 -5 1 -9 9 -9 8 0 12 4 9 9 -3 4 -7 8 -9 8 -2 0 -6 -4
-9 -8z"/>
<path d="M688 705 c-3 -14 -1 -25 3 -25 5 0 9 11 9 25 0 14 -2 25 -4 25 -2 0
-6 -11 -8 -25z"/>
<path d="M677 663 c-4 -3 -7 -18 -7 -31 0 -31 12 -21 16 13 3 26 1 29 -9 18z"/>
<path d="M681 464 c0 -11 3 -14 6 -6 3 7 2 16 -1 19 -3 4 -6 -2 -5 -13z"/>
<path d="M786 417 c6 -59 4 -67 -10 -61 -20 8 -21 -19 -1 -61 l13 -30 1 39 c1
63 8 39 21 -74 12 -96 31 -150 43 -117 9 25 19 -3 19 -57 1 -53 2 -56 25 -56
24 0 25 2 19 44 -9 60 -64 246 -66 221 0 -11 -12 21 -25 70 -39 147 -45 160
-39 82z m78 -237 c4 -38 3 -50 -4 -40 -9 13 -15 109 -6 99 2 -2 6 -29 10 -59z"/>
<path d="M676 413 c5 -5 12 -12 16 -18 4 -6 8 -2 8 8 0 9 -7 17 -17 17 -9 0
-12 -3 -7 -7z"/>
<path d="M721 404 c0 -11 3 -14 6 -6 3 7 2 16 -1 19 -3 4 -6 -2 -5 -13z"/>
<path d="M754 226 c0 -19 2 -34 6 -34 17 2 21 -4 11 -15 -8 -10 -7 -14 4 -14
17 0 20 23 5 32 -5 3 -10 19 -10 36 0 16 -4 29 -8 29 -4 0 -8 -15 -8 -34z"/>
<path d="M780 94 c9 -61 20 -67 17 -11 -1 26 -7 49 -13 51 -7 3 -8 -10 -4 -40z"/>
<path d="M947 49 c-10 -37 -8 -49 8 -49 16 0 18 23 6 54 -7 18 -8 18 -14 -5z"/>
</g>
</svg>
